<svg width="50" height="37" viewBox="0 0 50 37" fill="none" xmlns="http://www.w3.org/2000/svg">
<path fill-rule="evenodd" clip-rule="evenodd" d="M12.0979 11.859L15.6147 2.68369C16.2359 1.06283 17.7402 0 19.4129 0H30.5871C32.2598 0 33.7641 1.06283 34.3852 2.68369L37.9019 11.859H44.9154L45.6165 10.0294C46.0826 8.81319 47.4053 8.22161 48.5708 8.70809C49.7362 9.19459 50.303 10.5749 49.8369 11.7911L41.2032 34.3163C40.5821 35.9372 39.0778 37 37.4051 37H12.5949C10.9222 37 9.41792 35.9372 8.79669 34.3163L0.163154 11.7911C-0.303002 10.5749 0.263838 9.19459 1.42923 8.70809C2.59461 8.22161 3.91724 8.81319 4.38339 10.0294L5.08464 11.859H12.0979ZM13.5837 16.6026H6.90278L12.9026 32.2564H37.0974L43.0973 16.6026H36.4163C36.3813 16.6034 36.3465 16.6034 36.3117 16.6026H13.6882C13.6534 16.6034 13.6186 16.6034 13.5837 16.6026ZM33.0066 11.859L30.2794 4.74359H19.7206L16.9934 11.859H33.0066Z" fill="white"/>
</svg>
